# xmcd CD database file
#
# Track frame offsets:
#	150
#	20090
#	43540
#	63487
#
# Disc length: 1158 seconds
#
# Revision: 0
# Processed by: cddbd v1.5PL3 Copyright (c) Steve Scherf et al.
# Submitted via: CDex 1.51
#
DISCID=30048404
DTITLE=TWO-MIX - TIME DISTORTION
DYEAR=1998
DGENRE=JPop
TTITLE0=TIME DISTORTION
TTITLE1=MILKY ROAD
TTITLE2=TIME DISTORTION (Instrumental)
TTITLE3=MILKY ROAD (Instrumental)
EXTD=YEAR: 1998
EXTT0=
EXTT1=
EXTT2=
EXTT3=
PLAYORDER=
